# Blender 4.5.4 LTS
# www.blender.org
mtllib panoramic.mtl
o Plane
v 0.146602 -1.000000 1.000000
v 0.146603 -1.000000 -1.000000
v 0.146602 1.000000 1.000000
v 0.146603 1.000000 -1.000000
v 0.146602 0.000000 1.000000
v -0.152612 -1.000000 -0.000000
v 0.146603 0.000000 -1.000000
v -0.152612 1.000000 0.000000
v -0.152612 0.000000 0.000000
v 0.146602 -0.500000 1.000000
v -0.078555 -1.000000 -0.500000
v 0.146603 0.500000 -1.000000
v -0.078554 1.000000 0.500000
v 0.146602 0.500000 1.000000
v -0.078555 -1.000000 0.500000
v 0.146603 -0.500000 -1.000000
v -0.078554 1.000000 -0.500000
v -0.152612 0.500000 0.000000
v -0.152612 -0.500000 -0.000000
v -0.078555 0.000000 0.500000
v -0.078554 0.000000 -0.500000
v -0.078554 -0.500000 -0.500000
v -0.078555 -0.500000 0.500000
v -0.078555 0.500000 0.500000
v -0.078554 0.500000 -0.500000
v 0.146602 -0.750000 1.000000
v 0.000000 -1.000000 -0.750000
v 0.146603 0.750000 -1.000000
v -0.000000 1.000000 0.750000
v 0.146602 0.250000 1.000000
v -0.132365 -1.000000 0.250000
v 0.146603 -0.250000 -1.000000
v -0.132364 1.000000 -0.250000
v -0.152612 0.750000 0.000000
v -0.152612 -0.250000 0.000000
v -0.000000 0.000000 0.750000
v -0.132365 0.000000 -0.250000
v 0.146602 -0.250000 1.000000
v -0.132365 -1.000000 -0.250000
v 0.146603 0.250000 -1.000000
v -0.132364 1.000000 0.250000
v 0.146602 0.750000 1.000000
v -0.000000 -1.000000 0.750000
v 0.146603 -0.750000 -1.000000
v 0.000000 1.000000 -0.750000
v -0.152612 0.250000 0.000000
v -0.152612 -0.750000 -0.000000
v -0.132365 0.000000 0.250000
v 0.000000 0.000000 -0.750000
v -0.078554 -0.250000 -0.500000
v -0.078554 -0.750000 -0.500000
v -0.132365 -0.500000 -0.250000
v 0.000000 -0.500000 -0.750000
v -0.078555 -0.250000 0.500000
v -0.078555 -0.750000 0.500000
v -0.000000 -0.500000 0.750000
v -0.132365 -0.500000 0.250000
v -0.078555 0.750000 0.500000
v -0.078555 0.250000 0.500000
v -0.000000 0.500000 0.750000
v -0.132365 0.500000 0.250000
v -0.078554 0.750000 -0.500000
v -0.078554 0.250000 -0.500000
v -0.132364 0.500000 -0.250000
v 0.000000 0.500000 -0.750000
v 0.000000 0.250000 -0.750000
v -0.132364 0.250000 -0.250000
v -0.132364 0.750000 -0.250000
v -0.132365 0.250000 0.250000
v -0.000000 0.250000 0.750000
v -0.000000 0.750000 0.750000
v -0.132365 -0.750000 0.250000
v -0.000000 -0.750000 0.750000
v -0.000000 -0.250000 0.750000
v 0.000000 -0.750000 -0.750000
v -0.132365 -0.750000 -0.250000
v -0.132365 -0.250000 -0.250000
v 0.000000 -0.250000 -0.750000
v -0.132365 -0.250000 0.250000
v -0.132365 0.750000 0.250000
v 0.000000 0.750000 -0.750000
vn 0.8626 -0.0000 0.5058
vn 0.9967 -0.0000 -0.0807
vn 0.9776 -0.0000 0.2104
vn 0.9540 -0.0000 -0.2998
vn 0.9540 -0.0000 0.2998
vn 0.9967 -0.0000 0.0807
vn 0.9776 -0.0000 -0.2104
vn 0.8626 -0.0000 -0.5058
vt 0.875000 0.875000
vt 1.000000 0.875000
vt 1.000000 1.000000
vt 0.875000 1.000000
vt 0.375000 0.875000
vt 0.500000 0.875000
vt 0.500000 1.000000
vt 0.375000 1.000000
vt 0.375000 0.375000
vt 0.500000 0.375000
vt 0.500000 0.500000
vt 0.375000 0.500000
vt 0.875000 0.375000
vt 1.000000 0.375000
vt 1.000000 0.500000
vt 0.875000 0.500000
vt 0.625000 0.375000
vt 0.750000 0.375000
vt 0.750000 0.500000
vt 0.625000 0.500000
vt 0.625000 0.125000
vt 0.750000 0.125000
vt 0.750000 0.250000
vt 0.625000 0.250000
vt 0.875000 0.125000
vt 1.000000 0.125000
vt 1.000000 0.250000
vt 0.875000 0.250000
vt 0.125000 0.375000
vt 0.250000 0.375000
vt 0.250000 0.500000
vt 0.125000 0.500000
vt 0.125000 0.125000
vt 0.250000 0.125000
vt 0.250000 0.250000
vt 0.125000 0.250000
vt 0.375000 0.125000
vt 0.500000 0.125000
vt 0.500000 0.250000
vt 0.375000 0.250000
vt 0.125000 0.875000
vt 0.250000 0.875000
vt 0.250000 1.000000
vt 0.125000 1.000000
vt 0.125000 0.625000
vt 0.250000 0.625000
vt 0.250000 0.750000
vt 0.125000 0.750000
vt 0.375000 0.625000
vt 0.500000 0.625000
vt 0.500000 0.750000
vt 0.375000 0.750000
vt 0.625000 0.875000
vt 0.750000 0.875000
vt 0.750000 1.000000
vt 0.625000 1.000000
vt 0.625000 0.625000
vt 0.750000 0.625000
vt 0.750000 0.750000
vt 0.625000 0.750000
vt 0.875000 0.625000
vt 1.000000 0.625000
vt 1.000000 0.750000
vt 0.875000 0.750000
vt 0.000000 0.625000
vt 0.000000 0.750000
vt 0.000000 0.500000
vt 0.000000 0.875000
vt 0.000000 1.000000
vt 0.250000 0.000000
vt 0.375000 0.000000
vt 0.500000 0.000000
vt 0.000000 0.125000
vt 0.000000 0.250000
vt 0.000000 0.000000
vt 0.125000 0.000000
vt 0.000000 0.375000
vt 0.750000 0.000000
vt 0.875000 0.000000
vt 1.000000 0.000000
vt 0.625000 0.000000
s 0
f 81/1/1 28/2/1 4/3/1 45/4/1
f 80/5/2 34/6/2 8/7/2 41/8/2
f 79/9/2 35/10/2 9/11/2 48/12/2
f 78/13/1 32/14/1 7/15/1 49/16/1
f 77/17/3 50/18/3 21/19/3 37/20/3
f 76/21/3 51/22/3 22/23/3 52/24/3
f 75/25/1 44/26/1 16/27/1 53/28/1
f 74/29/4 54/30/4 20/31/4 36/32/4
f 73/33/4 55/34/4 23/35/4 56/36/4
f 72/37/2 47/38/2 19/39/2 57/40/2
f 71/41/4 58/42/4 13/43/4 29/44/4
f 70/45/4 59/46/4 24/47/4 60/48/4
f 69/49/2 46/50/2 18/51/2 61/52/2
f 68/53/3 62/54/3 17/55/3 33/56/3
f 67/57/3 63/58/3 25/59/3 64/60/3
f 66/61/1 40/62/1 12/63/1 65/64/1
f 63/58/5 66/61/5 65/64/5 25/59/5
f 21/19/5 49/16/5 66/61/5 63/58/5
f 49/16/1 7/15/1 40/62/1 66/61/1
f 46/50/6 67/57/6 64/60/6 18/51/6
f 9/11/6 37/20/6 67/57/6 46/50/6
f 37/20/3 21/19/3 63/58/3 67/57/3
f 34/6/6 68/53/6 33/56/6 8/7/6
f 18/51/6 64/60/6 68/53/6 34/6/6
f 64/60/3 25/59/3 62/54/3 68/53/3
f 59/46/7 69/49/7 61/52/7 24/47/7
f 20/31/7 48/12/7 69/49/7 59/46/7
f 48/12/2 9/11/2 46/50/2 69/49/2
f 30/65/8 70/45/8 60/48/8 14/66/8
f 5/67/8 36/32/8 70/45/8 30/65/8
f 36/32/4 20/31/4 59/46/4 70/45/4
f 42/68/8 71/41/8 29/44/8 3/69/8
f 14/66/8 60/48/8 71/41/8 42/68/8
f 60/48/4 24/47/4 58/42/4 71/41/4
f 55/34/7 72/37/7 57/40/7 23/35/7
f 15/70/7 31/71/7 72/37/7 55/34/7
f 31/71/2 6/72/2 47/38/2 72/37/2
f 26/73/8 73/33/8 56/36/8 10/74/8
f 1/75/8 43/76/8 73/33/8 26/73/8
f 43/76/4 15/70/4 55/34/4 73/33/4
f 38/77/8 74/29/8 36/32/8 5/67/8
f 10/74/8 56/36/8 74/29/8 38/77/8
f 56/36/4 23/35/4 54/30/4 74/29/4
f 51/22/5 75/25/5 53/28/5 22/23/5
f 11/78/5 27/79/5 75/25/5 51/22/5
f 27/79/1 2/80/1 44/26/1 75/25/1
f 47/38/6 76/21/6 52/24/6 19/39/6
f 6/72/6 39/81/6 76/21/6 47/38/6
f 39/81/3 11/78/3 51/22/3 76/21/3
f 35/10/6 77/17/6 37/20/6 9/11/6
f 19/39/6 52/24/6 77/17/6 35/10/6
f 52/24/3 22/23/3 50/18/3 77/17/3
f 50/18/5 78/13/5 49/16/5 21/19/5
f 22/23/5 53/28/5 78/13/5 50/18/5
f 53/28/1 16/27/1 32/14/1 78/13/1
f 54/30/7 79/9/7 48/12/7 20/31/7
f 23/35/7 57/40/7 79/9/7 54/30/7
f 57/40/2 19/39/2 35/10/2 79/9/2
f 58/42/7 80/5/7 41/8/7 13/43/7
f 24/47/7 61/52/7 80/5/7 58/42/7
f 61/52/2 18/51/2 34/6/2 80/5/2
f 62/54/5 81/1/5 45/4/5 17/55/5
f 25/59/5 65/64/5 81/1/5 62/54/5
f 65/64/1 12/63/1 28/2/1 81/1/1
